<?xml version="1.0" encoding="UTF-8" standalone="no"?>
<!DOCTYPE svg PUBLIC "-//W3C//DTD SVG 1.1//EN"
 "http://www.w3.org/Graphics/SVG/1.1/DTD/svg11.dtd">
<!-- Generated by graphviz version 3.0.0 (20220226.1711)
 -->
<!-- Title: dependencies Pages: 1 -->
<svg width="432pt" height="247pt"
 viewBox="0.00 0.00 432.00 246.80" xmlns="http://www.w3.org/2000/svg" xmlns:xlink="http://www.w3.org/1999/xlink">
<g id="graph0" class="graph" transform="scale(1 1) rotate(0) translate(4 242.8)">
<title>dependencies</title>
<polygon fill="white" stroke="transparent" points="-4,4 -4,-242.8 428,-242.8 428,4 -4,4"/>
<text text-anchor="middle" x="212" y="-8.2" font-family="sans-serif" font-size="14.00">dependencies</text>
<g id="clust1" class="cluster">
<title>cluster_AuthModule</title>
<polygon fill="none" stroke="black" stroke-dasharray="1,5" points="8,-32.8 8,-230.8 416,-230.8 416,-32.8 8,-32.8"/>
</g>
<g id="clust3" class="cluster">
<title>cluster_AuthModule_imports</title>
<polygon fill="none" stroke="black" points="290,-40.8 290,-92.8 408,-92.8 408,-40.8 290,-40.8"/>
</g>
<g id="clust4" class="cluster">
<title>cluster_AuthModule_exports</title>
<polygon fill="none" stroke="black" points="161,-170.8 161,-222.8 269,-222.8 269,-170.8 161,-170.8"/>
</g>
<g id="clust6" class="cluster">
<title>cluster_AuthModule_providers</title>
<polygon fill="none" stroke="black" points="16,-40.8 16,-92.8 282,-92.8 282,-40.8 16,-40.8"/>
</g>
<!-- SessionModule -->
<g id="node1" class="node">
<title>SessionModule</title>
<polygon fill="#8dd3c7" stroke="black" points="400.34,-84.8 397.34,-88.8 376.34,-88.8 373.34,-84.8 297.66,-84.8 297.66,-48.8 400.34,-48.8 400.34,-84.8"/>
<text text-anchor="middle" x="349" y="-62.6" font-family="Times,serif" font-size="14.00">SessionModule</text>
</g>
<!-- AuthModule -->
<g id="node2" class="node">
<title>AuthModule</title>
<polygon fill="#8dd3c7" stroke="black" points="258.55,-149.8 255.55,-153.8 234.55,-153.8 231.55,-149.8 171.45,-149.8 171.45,-113.8 258.55,-113.8 258.55,-149.8"/>
<text text-anchor="middle" x="215" y="-127.6" font-family="Times,serif" font-size="14.00">AuthModule</text>
</g>
<!-- SessionModule&#45;&gt;AuthModule -->
<g id="edge1" class="edge">
<title>SessionModule&#45;&gt;AuthModule</title>
<path fill="none" stroke="black" d="M349,-84.91C349,-104.14 349,-131.8 349,-131.8 349,-131.8 268.88,-131.8 268.88,-131.8"/>
<polygon fill="black" stroke="black" points="268.88,-128.3 258.88,-131.8 268.88,-135.3 268.88,-128.3"/>
</g>
<!-- AuthModule  -->
<g id="node3" class="node">
<title>AuthModule </title>
<polygon fill="#fb8072" stroke="black" points="260.55,-214.8 169.45,-214.8 169.45,-178.8 260.55,-178.8 260.55,-214.8"/>
<text text-anchor="middle" x="215" y="-192.6" font-family="Times,serif" font-size="14.00">AuthModule </text>
</g>
<!-- AuthModule&#45;&gt;AuthModule  -->
<g id="edge2" class="edge">
<title>AuthModule&#45;&gt;AuthModule </title>
<path fill="none" stroke="black" stroke-dasharray="5,2" d="M215,-149.91C215,-149.91 215,-168.79 215,-168.79"/>
<polygon fill="black" stroke="black" points="211.5,-168.79 215,-178.79 218.5,-168.79 211.5,-168.79"/>
</g>
<!-- AuthService -->
<g id="node4" class="node">
<title>AuthService</title>
<ellipse fill="#fdb462" stroke="black" cx="215" cy="-66.8" rx="59.11" ry="18"/>
<text text-anchor="middle" x="215" y="-62.6" font-family="Times,serif" font-size="14.00">AuthService</text>
</g>
<!-- AuthService&#45;&gt;AuthModule -->
<g id="edge3" class="edge">
<title>AuthService&#45;&gt;AuthModule</title>
<path fill="none" stroke="black" d="M215,-84.91C215,-84.91 215,-103.79 215,-103.79"/>
<polygon fill="black" stroke="black" points="211.5,-103.79 215,-113.79 218.5,-103.79 211.5,-103.79"/>
</g>
<!-- JwtStrategy -->
<g id="node5" class="node">
<title>JwtStrategy</title>
<ellipse fill="#fdb462" stroke="black" cx="81" cy="-66.8" rx="56.77" ry="18"/>
<text text-anchor="middle" x="81" y="-62.6" font-family="Times,serif" font-size="14.00">JwtStrategy</text>
</g>
<!-- JwtStrategy&#45;&gt;AuthModule -->
<g id="edge4" class="edge">
<title>JwtStrategy&#45;&gt;AuthModule</title>
<path fill="none" stroke="black" d="M81,-84.91C81,-104.14 81,-131.8 81,-131.8 81,-131.8 161.12,-131.8 161.12,-131.8"/>
<polygon fill="black" stroke="black" points="161.12,-135.3 171.12,-131.8 161.12,-128.3 161.12,-135.3"/>
</g>
</g>
</svg>
