<?xml version="1.0" encoding="UTF-8" standalone="no"?>
<!DOCTYPE svg PUBLIC "-//W3C//DTD SVG 1.1//EN"
 "http://www.w3.org/Graphics/SVG/1.1/DTD/svg11.dtd">
<!-- Generated by graphviz version 3.0.0 (20220226.1711)
 -->
<!-- Title: dependencies Pages: 1 -->
<svg width="1491pt" height="334pt"
 viewBox="0.00 0.00 1491.00 333.80" xmlns="http://www.w3.org/2000/svg" xmlns:xlink="http://www.w3.org/1999/xlink">
<g id="graph0" class="graph" transform="scale(1 1) rotate(0) translate(4 329.8)">
<title>dependencies</title>
<polygon fill="white" stroke="transparent" points="-4,4 -4,-329.8 1487,-329.8 1487,4 -4,4"/>
<text text-anchor="middle" x="741.5" y="-8.2" font-family="sans-serif" font-size="14.00">dependencies</text>
<g id="clust1" class="cluster">
<title>cluster_AppModule</title>
<polygon fill="none" stroke="black" stroke-dasharray="1,5" points="316,-32.8 316,-309.8 709,-309.8 709,-32.8 316,-32.8"/>
</g>
<g id="clust3" class="cluster">
<title>cluster_AppModule_imports</title>
<polygon fill="none" stroke="black" points="488,-40.8 488,-233.8 701,-233.8 701,-40.8 488,-40.8"/>
</g>
<g id="clust6" class="cluster">
<title>cluster_AppModule_providers</title>
<polygon fill="none" stroke="black" points="336,-181.8 336,-233.8 466,-233.8 466,-181.8 336,-181.8"/>
</g>
<g id="clust7" class="cluster">
<title>cluster_AuthModule</title>
<polygon fill="none" stroke="black" stroke-dasharray="1,5" points="1077,-97.8 1077,-165.8 1475,-165.8 1475,-97.8 1077,-97.8"/>
</g>
<g id="clust10" class="cluster">
<title>cluster_AuthModule_exports</title>
<polygon fill="none" stroke="black" points="1359,-105.8 1359,-157.8 1467,-157.8 1467,-105.8 1359,-105.8"/>
</g>
<g id="clust12" class="cluster">
<title>cluster_AuthModule_providers</title>
<polygon fill="none" stroke="black" points="1085,-105.8 1085,-157.8 1351,-157.8 1351,-105.8 1085,-105.8"/>
</g>
<g id="clust13" class="cluster">
<title>cluster_CaslModule</title>
<polygon fill="none" stroke="black" stroke-dasharray="1,5" points="717,-97.8 717,-165.8 1069,-165.8 1069,-97.8 717,-97.8"/>
</g>
<g id="clust16" class="cluster">
<title>cluster_CaslModule_exports</title>
<polygon fill="none" stroke="black" points="919,-105.8 919,-157.8 1061,-157.8 1061,-105.8 919,-105.8"/>
</g>
<g id="clust18" class="cluster">
<title>cluster_CaslModule_providers</title>
<polygon fill="none" stroke="black" points="725,-105.8 725,-157.8 911,-157.8 911,-105.8 725,-105.8"/>
</g>
<g id="clust19" class="cluster">
<title>cluster_SessionModule</title>
<polygon fill="none" stroke="black" stroke-dasharray="1,5" points="8,-173.8 8,-241.8 308,-241.8 308,-173.8 8,-173.8"/>
</g>
<g id="clust22" class="cluster">
<title>cluster_SessionModule_exports</title>
<polygon fill="none" stroke="black" points="180,-181.8 180,-233.8 300,-233.8 300,-181.8 180,-181.8"/>
</g>
<g id="clust24" class="cluster">
<title>cluster_SessionModule_providers</title>
<polygon fill="none" stroke="black" points="16,-181.8 16,-233.8 172,-233.8 172,-181.8 16,-181.8"/>
</g>
<g id="clust25" class="cluster">
<title>cluster_UsersModule</title>
<polygon fill="none" stroke="black" stroke-dasharray="1,5" points="717,-249.8 717,-317.8 991,-317.8 991,-249.8 717,-249.8"/>
</g>
<g id="clust28" class="cluster">
<title>cluster_UsersModule_exports</title>
<polygon fill="none" stroke="black" points="873,-257.8 873,-309.8 983,-309.8 983,-257.8 873,-257.8"/>
</g>
<g id="clust30" class="cluster">
<title>cluster_UsersModule_providers</title>
<polygon fill="none" stroke="black" points="725,-257.8 725,-309.8 865,-309.8 865,-257.8 725,-257.8"/>
</g>
<!-- AuthModule -->
<g id="node1" class="node">
<title>AuthModule</title>
<polygon fill="#8dd3c7" stroke="black" points="692.55,-225.8 689.55,-229.8 668.55,-229.8 665.55,-225.8 605.45,-225.8 605.45,-189.8 692.55,-189.8 692.55,-225.8"/>
<text text-anchor="middle" x="649" y="-203.6" font-family="Times,serif" font-size="14.00">AuthModule</text>
</g>
<!-- AppModule -->
<g id="node5" class="node">
<title>AppModule</title>
<polygon fill="#8dd3c7" stroke="black" points="518.66,-301.8 515.66,-305.8 494.66,-305.8 491.66,-301.8 435.34,-301.8 435.34,-265.8 518.66,-265.8 518.66,-301.8"/>
<text text-anchor="middle" x="477" y="-279.6" font-family="Times,serif" font-size="14.00">AppModule</text>
</g>
<!-- AuthModule&#45;&gt;AppModule -->
<g id="edge1" class="edge">
<title>AuthModule&#45;&gt;AppModule</title>
<path fill="none" stroke="black" d="M649,-225.83C649,-250.78 649,-292.8 649,-292.8 649,-292.8 529.08,-292.8 529.08,-292.8"/>
<polygon fill="black" stroke="black" points="529.08,-289.3 519.08,-292.8 529.08,-296.3 529.08,-289.3"/>
</g>
<!-- AuthModule  -->
<g id="node7" class="node">
<title>AuthModule </title>
<polygon fill="#fb8072" stroke="black" points="1458.55,-149.8 1367.45,-149.8 1367.45,-113.8 1458.55,-113.8 1458.55,-149.8"/>
<text text-anchor="middle" x="1413" y="-127.6" font-family="Times,serif" font-size="14.00">AuthModule </text>
</g>
<!-- AuthModule&#45;&gt;AuthModule  -->
<g id="edge7" class="edge">
<title>AuthModule&#45;&gt;AuthModule </title>
<path fill="none" stroke="black" stroke-dasharray="5,2" d="M692.82,-216.8C855.16,-216.8 1413,-216.8 1413,-216.8 1413,-216.8 1413,-159.83 1413,-159.83"/>
<polygon fill="black" stroke="black" points="1416.5,-159.83 1413,-149.83 1409.5,-159.83 1416.5,-159.83"/>
</g>
<!-- CaslModule -->
<g id="node2" class="node">
<title>CaslModule</title>
<polygon fill="#8dd3c7" stroke="black" points="659.44,-84.8 656.44,-88.8 635.44,-88.8 632.44,-84.8 574.56,-84.8 574.56,-48.8 659.44,-48.8 659.44,-84.8"/>
<text text-anchor="middle" x="617" y="-62.6" font-family="Times,serif" font-size="14.00">CaslModule</text>
</g>
<!-- SessionModule -->
<g id="node3" class="node">
<title>SessionModule</title>
<polygon fill="#8dd3c7" stroke="black" points="598.34,-149.8 595.34,-153.8 574.34,-153.8 571.34,-149.8 495.66,-149.8 495.66,-113.8 598.34,-113.8 598.34,-149.8"/>
<text text-anchor="middle" x="547" y="-127.6" font-family="Times,serif" font-size="14.00">SessionModule</text>
</g>
<!-- CaslModule&#45;&gt;SessionModule -->
<g id="edge12" class="edge">
<title>CaslModule&#45;&gt;SessionModule</title>
<path fill="none" stroke="black" d="M586.47,-84.91C586.47,-84.91 586.47,-103.79 586.47,-103.79"/>
<polygon fill="black" stroke="black" points="582.97,-103.79 586.47,-113.79 589.97,-103.79 582.97,-103.79"/>
</g>
<!-- UsersModule -->
<g id="node4" class="node">
<title>UsersModule</title>
<polygon fill="#8dd3c7" stroke="black" points="587.94,-225.8 584.94,-229.8 563.94,-229.8 560.94,-225.8 496.06,-225.8 496.06,-189.8 587.94,-189.8 587.94,-225.8"/>
<text text-anchor="middle" x="542" y="-203.6" font-family="Times,serif" font-size="14.00">UsersModule</text>
</g>
<!-- CaslModule&#45;&gt;UsersModule -->
<g id="edge15" class="edge">
<title>CaslModule&#45;&gt;UsersModule</title>
<path fill="none" stroke="black" d="M600.52,-85.01C600.52,-121.86 600.52,-201.8 600.52,-201.8 600.52,-201.8 597.82,-201.8 597.82,-201.8"/>
<polygon fill="black" stroke="black" points="597.82,-198.3 587.82,-201.8 597.82,-205.3 597.82,-198.3"/>
</g>
<!-- CaslModule&#45;&gt;AppModule -->
<g id="edge2" class="edge">
<title>CaslModule&#45;&gt;AppModule</title>
<path fill="none" stroke="black" d="M602.87,-84.93C602.87,-137.08 602.87,-283.8 602.87,-283.8 602.87,-283.8 528.91,-283.8 528.91,-283.8"/>
<polygon fill="black" stroke="black" points="528.91,-280.3 518.91,-283.8 528.91,-287.3 528.91,-280.3"/>
</g>
<!-- CaslAbilityFactory  -->
<g id="node10" class="node">
<title>CaslAbilityFactory </title>
<polygon fill="#fb8072" stroke="black" points="1053.32,-149.8 926.68,-149.8 926.68,-113.8 1053.32,-113.8 1053.32,-149.8"/>
<text text-anchor="middle" x="990" y="-127.6" font-family="Times,serif" font-size="14.00">CaslAbilityFactory </text>
</g>
<!-- CaslModule&#45;&gt;CaslAbilityFactory  -->
<g id="edge10" class="edge">
<title>CaslModule&#45;&gt;CaslAbilityFactory </title>
<path fill="none" stroke="black" stroke-dasharray="5,2" d="M659.42,-66.8C757.19,-66.8 990,-66.8 990,-66.8 990,-66.8 990,-103.69 990,-103.69"/>
<polygon fill="black" stroke="black" points="986.5,-103.69 990,-113.69 993.5,-103.69 986.5,-103.69"/>
</g>
<!-- SessionModule&#45;&gt;AuthModule -->
<g id="edge6" class="edge">
<title>SessionModule&#45;&gt;AuthModule</title>
<path fill="none" stroke="black" d="M592.94,-150C592.94,-174.16 592.94,-213.8 592.94,-213.8 592.94,-213.8 595.38,-213.8 595.38,-213.8"/>
<polygon fill="black" stroke="black" points="595.38,-217.3 605.38,-213.8 595.38,-210.3 595.38,-217.3"/>
</g>
<!-- SessionModule&#45;&gt;UsersModule -->
<g id="edge16" class="edge">
<title>SessionModule&#45;&gt;UsersModule</title>
<path fill="none" stroke="black" d="M542,-149.81C542,-149.81 542,-179.65 542,-179.65"/>
<polygon fill="black" stroke="black" points="538.5,-179.65 542,-189.65 545.5,-179.65 538.5,-179.65"/>
</g>
<!-- SessionModule&#45;&gt;AppModule -->
<g id="edge3" class="edge">
<title>SessionModule&#45;&gt;AppModule</title>
<path fill="none" stroke="black" d="M495.56,-140.8C484.84,-140.8 476.73,-140.8 476.73,-140.8 476.73,-140.8 476.73,-255.69 476.73,-255.69"/>
<polygon fill="black" stroke="black" points="473.23,-255.69 476.73,-265.69 480.23,-255.69 473.23,-255.69"/>
</g>
<!-- SessionService  -->
<g id="node12" class="node">
<title>SessionService </title>
<polygon fill="#fb8072" stroke="black" points="292.27,-225.8 187.73,-225.8 187.73,-189.8 292.27,-189.8 292.27,-225.8"/>
<text text-anchor="middle" x="240" y="-203.6" font-family="Times,serif" font-size="14.00">SessionService </text>
</g>
<!-- SessionModule&#45;&gt;SessionService  -->
<g id="edge13" class="edge">
<title>SessionModule&#45;&gt;SessionService </title>
<path fill="none" stroke="black" stroke-dasharray="5,2" d="M495.62,-131.8C408.22,-131.8 240,-131.8 240,-131.8 240,-131.8 240,-179.79 240,-179.79"/>
<polygon fill="black" stroke="black" points="236.5,-179.79 240,-189.79 243.5,-179.79 236.5,-179.79"/>
</g>
<!-- UsersModule&#45;&gt;AppModule -->
<g id="edge4" class="edge">
<title>UsersModule&#45;&gt;AppModule</title>
<path fill="none" stroke="black" d="M507.56,-225.81C507.56,-225.81 507.56,-255.65 507.56,-255.65"/>
<polygon fill="black" stroke="black" points="504.06,-255.65 507.56,-265.65 511.06,-255.65 504.06,-255.65"/>
</g>
<!-- UsersService  -->
<g id="node14" class="node">
<title>UsersService </title>
<polygon fill="#fb8072" stroke="black" points="974.86,-301.8 881.14,-301.8 881.14,-265.8 974.86,-265.8 974.86,-301.8"/>
<text text-anchor="middle" x="928" y="-279.6" font-family="Times,serif" font-size="14.00">UsersService </text>
</g>
<!-- UsersModule&#45;&gt;UsersService  -->
<g id="edge17" class="edge">
<title>UsersModule&#45;&gt;UsersService </title>
<path fill="none" stroke="black" stroke-dasharray="5,2" d="M541.79,-225.91C541.79,-235.7 541.79,-245.8 541.79,-245.8 541.79,-245.8 892.19,-245.8 892.19,-245.8 892.19,-245.8 892.19,-255.69 892.19,-255.69"/>
<polygon fill="black" stroke="black" points="888.69,-255.69 892.19,-265.69 895.69,-255.69 888.69,-255.69"/>
</g>
<!-- AppService -->
<g id="node6" class="node">
<title>AppService</title>
<ellipse fill="#fdb462" stroke="black" cx="401" cy="-207.8" rx="56.75" ry="18"/>
<text text-anchor="middle" x="401" y="-203.6" font-family="Times,serif" font-size="14.00">AppService</text>
</g>
<!-- AppService&#45;&gt;AppModule -->
<g id="edge5" class="edge">
<title>AppService&#45;&gt;AppModule</title>
<path fill="none" stroke="black" d="M446.4,-218.69C446.4,-218.69 446.4,-255.59 446.4,-255.59"/>
<polygon fill="black" stroke="black" points="442.9,-255.59 446.4,-265.59 449.9,-255.59 442.9,-255.59"/>
</g>
<!-- AuthService -->
<g id="node8" class="node">
<title>AuthService</title>
<ellipse fill="#fdb462" stroke="black" cx="1284" cy="-131.8" rx="59.11" ry="18"/>
<text text-anchor="middle" x="1284" y="-127.6" font-family="Times,serif" font-size="14.00">AuthService</text>
</g>
<!-- AuthService&#45;&gt;AuthModule -->
<g id="edge8" class="edge">
<title>AuthService&#45;&gt;AuthModule</title>
<path fill="none" stroke="black" d="M1284,-149.81C1284,-172.29 1284,-207.8 1284,-207.8 1284,-207.8 702.65,-207.8 702.65,-207.8"/>
<polygon fill="black" stroke="black" points="702.65,-204.3 692.65,-207.8 702.65,-211.3 702.65,-204.3"/>
</g>
<!-- JwtStrategy -->
<g id="node9" class="node">
<title>JwtStrategy</title>
<ellipse fill="#fdb462" stroke="black" cx="1150" cy="-131.8" rx="56.77" ry="18"/>
<text text-anchor="middle" x="1150" y="-127.6" font-family="Times,serif" font-size="14.00">JwtStrategy</text>
</g>
<!-- JwtStrategy&#45;&gt;AuthModule -->
<g id="edge9" class="edge">
<title>JwtStrategy&#45;&gt;AuthModule</title>
<path fill="none" stroke="black" d="M1150,-150.11C1150,-169.95 1150,-198.8 1150,-198.8 1150,-198.8 702.58,-198.8 702.58,-198.8"/>
<polygon fill="black" stroke="black" points="702.58,-195.3 692.58,-198.8 702.58,-202.3 702.58,-195.3"/>
</g>
<!-- CaslAbilityFactory -->
<g id="node11" class="node">
<title>CaslAbilityFactory</title>
<ellipse fill="#fdb462" stroke="black" cx="818" cy="-131.8" rx="85.13" ry="18"/>
<text text-anchor="middle" x="818" y="-127.6" font-family="Times,serif" font-size="14.00">CaslAbilityFactory</text>
</g>
<!-- CaslAbilityFactory&#45;&gt;CaslModule -->
<g id="edge11" class="edge">
<title>CaslAbilityFactory&#45;&gt;CaslModule</title>
<path fill="none" stroke="black" d="M732.72,-131.8C683.89,-131.8 632.22,-131.8 632.22,-131.8 632.22,-131.8 632.22,-94.91 632.22,-94.91"/>
<polygon fill="black" stroke="black" points="635.72,-94.91 632.22,-84.91 628.72,-94.91 635.72,-94.91"/>
</g>
<!-- SessionService -->
<g id="node13" class="node">
<title>SessionService</title>
<ellipse fill="#fdb462" stroke="black" cx="94" cy="-207.8" rx="69.51" ry="18"/>
<text text-anchor="middle" x="94" y="-203.6" font-family="Times,serif" font-size="14.00">SessionService</text>
</g>
<!-- SessionService&#45;&gt;SessionModule -->
<g id="edge14" class="edge">
<title>SessionService&#45;&gt;SessionModule</title>
<path fill="none" stroke="black" d="M94,-189.77C94,-164.82 94,-122.8 94,-122.8 94,-122.8 485.48,-122.8 485.48,-122.8"/>
<polygon fill="black" stroke="black" points="485.48,-126.3 495.48,-122.8 485.48,-119.3 485.48,-126.3"/>
</g>
<!-- UsersService -->
<g id="node15" class="node">
<title>UsersService</title>
<ellipse fill="#fdb462" stroke="black" cx="795" cy="-283.8" rx="61.97" ry="18"/>
<text text-anchor="middle" x="795" y="-279.6" font-family="Times,serif" font-size="14.00">UsersService</text>
</g>
<!-- UsersService&#45;&gt;UsersModule -->
<g id="edge18" class="edge">
<title>UsersService&#45;&gt;UsersModule</title>
<path fill="none" stroke="black" d="M741.31,-274.8C673.27,-274.8 564.76,-274.8 564.76,-274.8 564.76,-274.8 564.76,-236.11 564.76,-236.11"/>
<polygon fill="black" stroke="black" points="568.26,-236.11 564.76,-226.11 561.26,-236.11 568.26,-236.11"/>
</g>
</g>
</svg>
