<?xml version="1.0" encoding="UTF-8" standalone="no"?>
<!DOCTYPE svg PUBLIC "-//W3C//DTD SVG 1.1//EN"
 "http://www.w3.org/Graphics/SVG/1.1/DTD/svg11.dtd">
<!-- Generated by graphviz version 3.0.0 (20220226.1711)
 -->
<!-- Title: dependencies Pages: 1 -->
<svg width="408pt" height="247pt"
 viewBox="0.00 0.00 408.00 246.80" xmlns="http://www.w3.org/2000/svg" xmlns:xlink="http://www.w3.org/1999/xlink">
<g id="graph0" class="graph" transform="scale(1 1) rotate(0) translate(4 242.8)">
<title>dependencies</title>
<polygon fill="white" stroke="transparent" points="-4,4 -4,-242.8 404,-242.8 404,4 -4,4"/>
<text text-anchor="middle" x="200" y="-8.2" font-family="sans-serif" font-size="14.00">dependencies</text>
<g id="clust1" class="cluster">
<title>cluster_UsersModule</title>
<polygon fill="none" stroke="black" stroke-dasharray="1,5" points="8,-32.8 8,-230.8 392,-230.8 392,-32.8 8,-32.8"/>
</g>
<g id="clust6" class="cluster">
<title>cluster_UsersModule_providers</title>
<polygon fill="none" stroke="black" points="244,-40.8 244,-92.8 384,-92.8 384,-40.8 244,-40.8"/>
</g>
<g id="clust4" class="cluster">
<title>cluster_UsersModule_exports</title>
<polygon fill="none" stroke="black" points="131,-170.8 131,-222.8 241,-222.8 241,-170.8 131,-170.8"/>
</g>
<g id="clust3" class="cluster">
<title>cluster_UsersModule_imports</title>
<polygon fill="none" stroke="black" points="16,-40.8 16,-92.8 236,-92.8 236,-40.8 16,-40.8"/>
</g>
<!-- CaslModule -->
<g id="node1" class="node">
<title>CaslModule</title>
<polygon fill="#8dd3c7" stroke="black" points="228.44,-84.8 225.44,-88.8 204.44,-88.8 201.44,-84.8 143.56,-84.8 143.56,-48.8 228.44,-48.8 228.44,-84.8"/>
<text text-anchor="middle" x="186" y="-62.6" font-family="Times,serif" font-size="14.00">CaslModule</text>
</g>
<!-- UsersModule -->
<g id="node3" class="node">
<title>UsersModule</title>
<polygon fill="#8dd3c7" stroke="black" points="231.94,-149.8 228.94,-153.8 207.94,-153.8 204.94,-149.8 140.06,-149.8 140.06,-113.8 231.94,-113.8 231.94,-149.8"/>
<text text-anchor="middle" x="186" y="-127.6" font-family="Times,serif" font-size="14.00">UsersModule</text>
</g>
<!-- CaslModule&#45;&gt;UsersModule -->
<g id="edge1" class="edge">
<title>CaslModule&#45;&gt;UsersModule</title>
<path fill="none" stroke="black" d="M186,-84.91C186,-84.91 186,-103.79 186,-103.79"/>
<polygon fill="black" stroke="black" points="182.5,-103.79 186,-113.79 189.5,-103.79 182.5,-103.79"/>
</g>
<!-- SessionModule -->
<g id="node2" class="node">
<title>SessionModule</title>
<polygon fill="#8dd3c7" stroke="black" points="126.34,-84.8 123.34,-88.8 102.34,-88.8 99.34,-84.8 23.66,-84.8 23.66,-48.8 126.34,-48.8 126.34,-84.8"/>
<text text-anchor="middle" x="75" y="-62.6" font-family="Times,serif" font-size="14.00">SessionModule</text>
</g>
<!-- SessionModule&#45;&gt;UsersModule -->
<g id="edge2" class="edge">
<title>SessionModule&#45;&gt;UsersModule</title>
<path fill="none" stroke="black" d="M75,-84.91C75,-104.14 75,-131.8 75,-131.8 75,-131.8 130.21,-131.8 130.21,-131.8"/>
<polygon fill="black" stroke="black" points="130.21,-135.3 140.21,-131.8 130.21,-128.3 130.21,-135.3"/>
</g>
<!-- UsersService  -->
<g id="node4" class="node">
<title>UsersService </title>
<polygon fill="#fb8072" stroke="black" points="232.86,-214.8 139.14,-214.8 139.14,-178.8 232.86,-178.8 232.86,-214.8"/>
<text text-anchor="middle" x="186" y="-192.6" font-family="Times,serif" font-size="14.00">UsersService </text>
</g>
<!-- UsersModule&#45;&gt;UsersService  -->
<g id="edge3" class="edge">
<title>UsersModule&#45;&gt;UsersService </title>
<path fill="none" stroke="black" stroke-dasharray="5,2" d="M186,-149.91C186,-149.91 186,-168.79 186,-168.79"/>
<polygon fill="black" stroke="black" points="182.5,-168.79 186,-178.79 189.5,-168.79 182.5,-168.79"/>
</g>
<!-- UsersService -->
<g id="node5" class="node">
<title>UsersService</title>
<ellipse fill="#fdb462" stroke="black" cx="314" cy="-66.8" rx="61.97" ry="18"/>
<text text-anchor="middle" x="314" y="-62.6" font-family="Times,serif" font-size="14.00">UsersService</text>
</g>
<!-- UsersService&#45;&gt;UsersModule -->
<g id="edge4" class="edge">
<title>UsersService&#45;&gt;UsersModule</title>
<path fill="none" stroke="black" d="M314,-84.91C314,-104.14 314,-131.8 314,-131.8 314,-131.8 241.85,-131.8 241.85,-131.8"/>
<polygon fill="black" stroke="black" points="241.85,-128.3 231.85,-131.8 241.85,-135.3 241.85,-128.3"/>
</g>
</g>
</svg>
