<?xml version="1.0" encoding="UTF-8" standalone="no"?>
<!DOCTYPE svg PUBLIC "-//W3C//DTD SVG 1.1//EN"
 "http://www.w3.org/Graphics/SVG/1.1/DTD/svg11.dtd">
<!-- Generated by graphviz version 3.0.0 (20220226.1711)
 -->
<!-- Title: dependencies Pages: 1 -->
<svg width="304pt" height="247pt"
 viewBox="0.00 0.00 304.00 246.80" xmlns="http://www.w3.org/2000/svg" xmlns:xlink="http://www.w3.org/1999/xlink">
<g id="graph0" class="graph" transform="scale(1 1) rotate(0) translate(4 242.8)">
<title>dependencies</title>
<polygon fill="white" stroke="transparent" points="-4,4 -4,-242.8 300,-242.8 300,4 -4,4"/>
<text text-anchor="middle" x="148" y="-8.2" font-family="sans-serif" font-size="14.00">dependencies</text>
<g id="clust1" class="cluster">
<title>cluster_SessionModule</title>
<polygon fill="none" stroke="black" stroke-dasharray="1,5" points="8,-32.8 8,-230.8 288,-230.8 288,-32.8 8,-32.8"/>
</g>
<g id="clust3" class="cluster">
<title>cluster_SessionModule_imports</title>
<polygon fill="none" stroke="black" points="180,-40.8 180,-92.8 280,-92.8 280,-40.8 180,-40.8"/>
</g>
<g id="clust6" class="cluster">
<title>cluster_SessionModule_providers</title>
<polygon fill="none" stroke="black" points="16,-40.8 16,-92.8 172,-92.8 172,-40.8 16,-40.8"/>
</g>
<g id="clust4" class="cluster">
<title>cluster_SessionModule_exports</title>
<polygon fill="none" stroke="black" points="97,-170.8 97,-222.8 217,-222.8 217,-170.8 97,-170.8"/>
</g>
<!-- CaslModule -->
<g id="node1" class="node">
<title>CaslModule</title>
<polygon fill="#8dd3c7" stroke="black" points="272.44,-84.8 269.44,-88.8 248.44,-88.8 245.44,-84.8 187.56,-84.8 187.56,-48.8 272.44,-48.8 272.44,-84.8"/>
<text text-anchor="middle" x="230" y="-62.6" font-family="Times,serif" font-size="14.00">CaslModule</text>
</g>
<!-- SessionModule -->
<g id="node2" class="node">
<title>SessionModule</title>
<polygon fill="#8dd3c7" stroke="black" points="208.34,-149.8 205.34,-153.8 184.34,-153.8 181.34,-149.8 105.66,-149.8 105.66,-113.8 208.34,-113.8 208.34,-149.8"/>
<text text-anchor="middle" x="157" y="-127.6" font-family="Times,serif" font-size="14.00">SessionModule</text>
</g>
<!-- CaslModule&#45;&gt;SessionModule -->
<g id="edge1" class="edge">
<title>CaslModule&#45;&gt;SessionModule</title>
<path fill="none" stroke="black" d="M197.97,-84.91C197.97,-84.91 197.97,-103.79 197.97,-103.79"/>
<polygon fill="black" stroke="black" points="194.47,-103.79 197.97,-113.79 201.47,-103.79 194.47,-103.79"/>
</g>
<!-- SessionService  -->
<g id="node3" class="node">
<title>SessionService </title>
<polygon fill="#fb8072" stroke="black" points="209.27,-214.8 104.73,-214.8 104.73,-178.8 209.27,-178.8 209.27,-214.8"/>
<text text-anchor="middle" x="157" y="-192.6" font-family="Times,serif" font-size="14.00">SessionService </text>
</g>
<!-- SessionModule&#45;&gt;SessionService  -->
<g id="edge2" class="edge">
<title>SessionModule&#45;&gt;SessionService </title>
<path fill="none" stroke="black" stroke-dasharray="5,2" d="M157,-149.91C157,-149.91 157,-168.79 157,-168.79"/>
<polygon fill="black" stroke="black" points="153.5,-168.79 157,-178.79 160.5,-168.79 153.5,-168.79"/>
</g>
<!-- SessionService -->
<g id="node4" class="node">
<title>SessionService</title>
<ellipse fill="#fdb462" stroke="black" cx="94" cy="-66.8" rx="69.51" ry="18"/>
<text text-anchor="middle" x="94" y="-62.6" font-family="Times,serif" font-size="14.00">SessionService</text>
</g>
<!-- SessionService&#45;&gt;SessionModule -->
<g id="edge3" class="edge">
<title>SessionService&#45;&gt;SessionModule</title>
<path fill="none" stroke="black" d="M134.67,-81.55C134.67,-81.55 134.67,-103.39 134.67,-103.39"/>
<polygon fill="black" stroke="black" points="131.17,-103.39 134.67,-113.39 138.17,-103.39 131.17,-103.39"/>
</g>
</g>
</svg>
